Coordinates
version=1
nRows=19
nColumns=24
inDegrees=yes

Units are S.I. units (second, meters, Newtons, ...)
Angles are in degrees.

endheader
time	pelvis_tilt	pelvis_list	pelvis_rotation	pelvis_tx	pelvis_ty	pelvis_tz	hip_flexion_r	hip_adduction_r	hip_rotation_r	knee_angle_r	ankle_angle_r	subtalar_angle_r	mtp_angle_r	hip_flexion_l	hip_adduction_l	hip_rotation_l	knee_angle_l	ankle_angle_l	subtalar_angle_l	mtp_angle_l	lumbar_extension	lumbar_bending	lumbar_rotation
      1.13000000	     26.83298155	    -10.03384665	     -4.20113141	     -0.66310629	      0.89025154	     -0.01643789	    -47.10930226	      7.12998232	     25.37822450	      0.96631293	     12.68867322	     -4.51553996	     26.85057207	     -3.46525977	     -6.16854543	     14.19473336	     -8.56516001	     -5.07867766	    -34.44237403	     27.72838808	    -38.81908158	      7.34447640	     10.70788699
      1.13500000	     26.80813032	     -9.93778166	     -4.02921207	     -0.65744703	      0.88982196	     -0.01686026	    -47.15451572	      7.25457761	     24.91128054	      0.29834772	     12.83817340	     -4.15104820	     27.00966592	     -3.32390461	     -5.88991046	     14.67646861	     -9.29898116	     -5.49073870	    -34.30607419	     27.70026252	    -38.76549491	      7.29025926	     10.45367313
      1.14000000	     26.81438361	     -9.82743787	     -3.86156321	     -0.65179142	      0.88954028	     -0.01725327	    -47.14169305	      7.39081139	     24.22231743	     -0.56546402	     13.08056918	     -3.31117441	     27.38933286	     -3.25963837	     -5.59741381	     15.15533299	     -9.97534755	     -6.06815863	    -34.26258325	     27.58847057	    -38.74470946	      7.20697005	     10.24495977
      1.14500000	     26.80152635	     -9.70291484	     -3.61932522	     -0.64613695	      0.88928938	     -0.01777689	    -47.10758428	      7.56137963	     23.58649974	     -1.39832450	     13.19645807	     -2.72469094	     27.77961204	     -3.14780360	     -5.28605203	     15.73209168	    -10.70650345	     -6.60768490	    -34.19092418	     27.44832440	    -38.69734900	      7.15800814	      9.92470673
      1.15000000	     26.79559837	     -9.56116233	     -3.37059692	     -0.64048818	      0.88915868	     -0.01828275	    -47.02128129	      7.73611132	     22.84637696	     -2.34086222	     13.29923649	     -2.01310326	     28.31363996	     -3.07901017	     -4.96381432	     16.35160487	    -11.38197110	     -7.20949571	    -34.11012247	     27.23017611	    -38.65599691	      7.08624260	      9.63199911
      1.15500000	     26.78690712	     -9.41076658	     -3.07180217	     -0.63484684	      0.88911106	     -0.01886642	    -46.89314403	      7.93935268	     22.06636869	     -3.33949522	     13.32677985	     -1.28999621	     28.93305971	     -3.00244072	     -4.63339485	     17.02485011	    -12.07324944	     -7.78468138	    -34.03291116	     26.94776566	    -38.61116193	      7.03319633	      9.27065285
      1.16000000	     26.77652958	     -9.12683263	     -2.58757875	     -0.62890989	      0.88905442	     -0.01973444	    -46.76869467	      8.14757645	     20.95605372	     -4.30659526	     13.33311570	     -0.38296009	     29.76920985	     -2.92172972	     -4.15945004	     17.92290217	    -12.73875562	     -8.38939950	    -34.01120588	     26.52382937	    -38.50259390	      6.96700851	      8.65332779
      1.16500000	     26.71325726	     -8.87697220	     -2.07486571	     -0.62297780	      0.88904341	     -0.02062495	    -46.52580776	      8.41558912	     19.80535960	     -5.38316172	     13.16857923	      0.52736469	     30.48368386	     -2.78675325	     -3.72868101	     18.85207965	    -13.42808151	     -8.86172206	    -33.97184194	     26.15058308	    -38.34413049	      6.94779299	      8.07665307
      1.17000000	     26.66910993	     -8.59246442	     -1.52608085	     -0.61705074	      0.88915797	     -0.02157919	    -46.25896460	      8.66427495	     18.56528301	     -6.51690374	     13.02242115	      1.60506321	     31.34025687	     -2.70300203	     -3.26632114	     19.83147821	    -14.07010920	     -9.38569678	    -33.92302007	     25.68419619	    -38.20374112	      6.91193220	      7.42632327
      1.17500000	     26.60332791	     -8.32562747	     -0.94408710	     -0.61111279	      0.88933386	     -0.02257062	    -45.90656829	      8.94727285	     17.25907990	     -7.75888167	     12.73176717	      2.68615544	     32.15456078	     -2.60720894	     -2.82735683	     20.81276485	    -14.72410270	     -9.72852443	    -33.90685304	     25.23432618	    -38.04356117	      6.90777593	      6.75479251
      1.18000000	     26.54074067	     -8.03504691	     -0.35511561	     -0.60518320	      0.88963083	     -0.02355781	    -45.49412726	      9.19888801	     15.87052028	     -9.09899640	     12.40878801	      3.95008491	     33.09560810	     -2.57351135	     -2.38266100	     21.81667459	    -15.27429799	    -10.11842089	    -33.83391755	     24.69812942	    -37.88865635	      6.87773533	      6.03967018
      1.18500000	     26.50286089	     -7.72012554	      0.28431480	     -0.59927361	      0.89003067	     -0.02463377	    -45.10233131	      9.43784701	     14.45795952	    -10.37930105	     11.68426207	      4.74255350	     37.12212047	     -2.58373821	     -1.90549214	     22.88353439	    -15.83115597	    -10.37429681	    -33.78068800	     21.53925216	    -37.75922052	      6.84903347	      5.28331133
      1.19000000	     26.40714913	     -7.45044879	      0.91117002	     -0.59336567	      0.89044339	     -0.02567367	    -44.52979965	      9.68826185	     12.93349118	    -11.91604926	     11.22459910	      6.24305341	     37.46731673	     -2.53948443	     -1.50518649	     23.83292676	    -16.39394913	    -10.38040543	    -33.38710123	     21.31204368	    -37.57761057	      6.85479369	      4.57700145
      1.19500000	     26.30261001	     -7.15616004	      1.56903500	     -0.58745962	      0.89090721	     -0.02678331	    -43.88811820	      9.90062487	     11.27099254	    -13.53767788	     10.65277973	      7.84497642	     37.98269511	     -2.52606878	     -1.08062956	     24.84473161	    -16.89556226	    -10.48979291	    -33.27798028	     20.96783006	    -37.38774566	      6.85250488	      3.81499272
      1.20000000	     26.19246387	     -6.85427380	      2.24349217	     -0.58156573	      0.89141607	     -0.02793579	    -43.18646888	     10.07321343	      9.52285435	    -15.22988655	      9.95075889	      9.50710320	     38.62335723	     -2.54056076	     -0.65734065	     25.86407042	    -17.35522771	    -10.54816576	    -33.20463393	     20.57481064	    -37.19440161	      6.85008764	      3.03341321
      1.20500000	     26.06033150	     -6.54994798	      2.92666390	     -0.57568369	      0.89194944	     -0.02913550	    -42.40496711	     10.19863503	      7.70125352	    -17.00006250	      9.12682698	     11.22048339	     39.35436624	     -2.56346302	     -0.23850573	     26.88550259	    -17.77819404	    -10.53019917	    -33.13617975	     20.15445818	    -36.98166774	      6.85091970	      2.24024484
      1.21000000	     25.90509216	     -6.23799675	      3.61559292	     -0.56980859	      0.89250409	     -0.03035339	    -41.55023313	     10.26531017	      5.80466640	    -18.83337156	      8.15362876	     12.95642474	     40.16343736	     -2.59278606	      0.17882261	     27.89194004	    -18.16467757	    -10.45823508	    -33.06264688	     19.70340224	    -36.74803725	      6.84332627	      1.42401899
      1.21500000	     25.74035667	     -5.92527029	      4.30931925	     -0.56396524	      0.89307104	     -0.03161060	    -40.64197088	     10.27165974	      3.85907392	    -20.72172416	      7.04488660	     14.67014116	     41.01089800	     -2.64455385	      0.58780826	     28.89731646	    -18.50886591	    -10.32053696	    -32.99647067	     19.23858681	    -36.51081529	      6.83650359	      0.60456795
      1.22000000	     25.54583414	     -5.60730568	      5.00172862	     -0.55813568	      0.89363589	     -0.03289361	    -39.66600219	     10.20687921	      1.87059301	    -22.65327259	      5.79800713	     16.33604070	     41.88142302	     -2.69710946	      0.99624092	     29.89669771	    -18.81265209	    -10.14236712	    -32.94499408	     18.76098295	    -36.24594416	      6.82110035	     -0.22605828
